<svg version="1.1" xmlns="http://www.w3.org/2000/svg" xmlns:xlink="http://www.w3.org/1999/xlink" width="1241.69970703125" height="610"><defs/><g><g transform="translate(2,-46) scale(1,1)"><rect fill="#C0C0C0" stroke="none" x="199" y="63" width="242.720703125" height="220" opacity="0.2"/></g><g transform="translate(2,-46) scale(1,1)"><rect fill="#ffffff" stroke="none" x="192" y="56" width="242.720703125" height="220"/></g><g transform="translate(2,-46) scale(1,1)"><path fill="none" stroke="#000000" d="M 192 56 L 434.720703125 56 L 434.720703125 276 L 192 276 L 192 56 Z Z" stroke-miterlimit="10"/></g><g transform="translate(2,-46) scale(1,1)"><path fill="none" stroke="#000000" d="M 192 81 L 434.720703125 81" stroke-miterlimit="10"/></g><g transform="translate(2,-46) scale(1,1)"><path fill="none" stroke="#000000" d="M 192 119 L 434.720703125 119" stroke-miterlimit="10"/></g><g transform="translate(2,-46) scale(1,1)"><g><path fill="none" stroke="none"/><text fill="#000000" stroke="none" font-family="Arial" font-size="13px" font-style="normal" font-weight="bold" text-decoration="none" x="294.936279296875" y="75.5">Player</text></g></g><g transform="translate(2,-46) scale(1,1)"><g><path fill="none" stroke="none"/><text fill="#000000" stroke="none" font-family="Arial" font-size="13px" font-style="normal" font-weight="normal" text-decoration="none" x="197" y="98.5">-role</text></g></g><g transform="translate(2,-46) scale(1,1)"><g><path fill="none" stroke="none"/><text fill="#000000" stroke="none" font-family="Arial" font-size="13px" font-style="normal" font-weight="normal" text-decoration="none" x="197" y="113.5">-pointsVie: int</text></g></g><g transform="translate(2,-46) scale(1,1)"><g><path fill="none" stroke="none"/><text fill="#000000" stroke="none" font-family="Arial" font-size="13px" font-style="normal" font-weight="normal" text-decoration="none" x="197" y="136.5">+incrementHealth(n: int)</text></g></g><g transform="translate(2,-46) scale(1,1)"><g><path fill="none" stroke="none"/><text fill="#000000" stroke="none" font-family="Arial" font-size="13px" font-style="normal" font-weight="normal" text-decoration="none" x="197" y="151.5">+decrementHealth(n: int)</text></g></g><g transform="translate(2,-46) scale(1,1)"><g><path fill="none" stroke="none"/><text fill="#000000" stroke="none" font-family="Arial" font-size="13px" font-style="normal" font-weight="normal" text-decoration="none" x="197" y="166.5">+distanceTo(p: Player): int</text></g></g><g transform="translate(2,-46) scale(1,1)"><g><path fill="none" stroke="none"/><text fill="#000000" stroke="none" font-family="Arial" font-size="13px" font-style="normal" font-weight="normal" text-decoration="none" x="197" y="181.5">+getHealthPointsMax(): int</text></g></g><g transform="translate(2,-46) scale(1,1)"><g><path fill="none" stroke="none"/><text fill="#000000" stroke="none" font-family="Arial" font-size="13px" font-style="normal" font-weight="normal" text-decoration="none" x="197" y="196.5">+getOtherPlayers(): List&lt;Player&gt;</text></g></g><g transform="translate(2,-46) scale(1,1)"><g><path fill="none" stroke="none"/><text fill="#000000" stroke="none" font-family="Arial" font-size="13px" font-style="normal" font-weight="normal" text-decoration="none" x="197" y="211.5">+isDead(): boolean</text></g></g><g transform="translate(2,-46) scale(1,1)"><g><path fill="none" stroke="none"/><text fill="#000000" stroke="none" font-family="Arial" font-size="13px" font-style="normal" font-weight="normal" text-decoration="none" x="197" y="226.5">+drawToHand(): Card</text></g></g><g transform="translate(2,-46) scale(1,1)"><g><path fill="none" stroke="none"/><text fill="#000000" stroke="none" font-family="Arial" font-size="13px" font-style="normal" font-weight="normal" text-decoration="none" x="197" y="241.5">+discardFromHand(c: Card)</text></g></g><g transform="translate(2,-46) scale(1,1)"><g><path fill="none" stroke="none"/><text fill="#000000" stroke="none" font-family="Arial" font-size="13px" font-style="normal" font-weight="normal" text-decoration="none" x="197" y="256.5">+drawCard(): Card</text></g></g><g transform="translate(2,-46) scale(1,1)"><g><path fill="none" stroke="none"/><text fill="#000000" stroke="none" font-family="Arial" font-size="13px" font-style="normal" font-weight="normal" text-decoration="none" x="197" y="271.5">+removeRandomCardFromHand(): Card</text></g></g><g transform="translate(2,-46) scale(1,1)"><rect fill="#C0C0C0" stroke="none" x="15" y="407" width="184" height="143" opacity="0.2"/></g><g transform="translate(2,-46) scale(1,1)"><rect fill="#ffd456" stroke="none" x="8" y="400" width="184" height="143"/></g><g transform="translate(2,-46) scale(1,1)"><path fill="none" stroke="#000000" d="M 8 400 L 192 400 L 192 543 L 8 543 L 8 400 Z Z" stroke-miterlimit="10"/></g><g transform="translate(2,-46) scale(1,1)"><path fill="none" stroke="#000000" d="M 8 438 L 192 438" stroke-miterlimit="10"/></g><g transform="translate(2,-46) scale(1,1)"><path fill="none" stroke="#000000" d="M 8 476 L 192 476" stroke-miterlimit="10"/></g><g transform="translate(2,-46) scale(1,1)"><g><path fill="none" stroke="none"/><text fill="#000000" stroke="none" font-family="Arial" font-size="13px" font-style="normal" font-weight="normal" text-decoration="none" x="54.465087890625" y="417.5">«&lt;&lt;abstract&gt;&gt;»</text></g></g><g transform="translate(2,-46) scale(1,1)"><g><path fill="none" stroke="none"/><text fill="#000000" stroke="none" font-family="Arial" font-size="13px" font-style="italic" font-weight="bold" text-decoration="none" x="56.280517578125" y="432.5">BangCharacter</text></g></g><g transform="translate(2,-46) scale(1,1)"><g><path fill="none" stroke="none"/><text fill="#000000" stroke="none" font-family="Arial" font-size="13px" font-style="normal" font-weight="normal" text-decoration="none" x="13" y="455.5">-healthPoints: int</text></g></g><g transform="translate(2,-46) scale(1,1)"><g><path fill="none" stroke="none"/><text fill="#000000" stroke="none" font-family="Arial" font-size="13px" font-style="normal" font-weight="normal" text-decoration="none" x="13" y="470.5">-name: String</text></g></g><g transform="translate(2,-46) scale(1,1)"><g><path fill="none" stroke="none"/><text fill="#000000" stroke="none" font-family="Arial" font-size="13px" font-style="normal" font-weight="normal" text-decoration="none" x="13" y="493.5">+onStartTurn(p: Player)</text></g></g><g transform="translate(2,-46) scale(1,1)"><g><path fill="none" stroke="none"/><text fill="#000000" stroke="none" font-family="Arial" font-size="13px" font-style="normal" font-weight="normal" text-decoration="none" x="13" y="508.5">+randomDraw(p: Player)</text></g></g><g transform="translate(2,-46) scale(1,1)"><g><path fill="none" stroke="none"/><text fill="#000000" stroke="none" font-family="Arial" font-size="13px" font-style="normal" font-weight="normal" text-decoration="none" x="13" y="523.5">+getHealthPoints(): int</text></g></g><g transform="translate(2,-46) scale(1,1)"><g><path fill="none" stroke="none"/><text fill="#000000" stroke="none" font-family="Arial" font-size="13px" font-style="normal" font-weight="normal" text-decoration="none" x="13" y="538.5">+getName(): String</text></g></g><g transform="translate(2,-46) scale(1,1)"><rect fill="#C0C0C0" stroke="none" x="559" y="135" width="336" height="173" opacity="0.2"/></g><g transform="translate(2,-46) scale(1,1)"><rect fill="#ffd456" stroke="none" x="552" y="128" width="336" height="173"/></g><g transform="translate(2,-46) scale(1,1)"><path fill="none" stroke="#000000" d="M 552 128 L 888 128 L 888 301 L 552 301 L 552 128 Z Z" stroke-miterlimit="10"/></g><g transform="translate(2,-46) scale(1,1)"><path fill="none" stroke="#000000" d="M 552 166 L 888 166" stroke-miterlimit="10"/></g><g transform="translate(2,-46) scale(1,1)"><path fill="none" stroke="#000000" d="M 552 219 L 888 219" stroke-miterlimit="10"/></g><g transform="translate(2,-46) scale(1,1)"><g><path fill="none" stroke="none"/><text fill="#000000" stroke="none" font-family="Arial" font-size="13px" font-style="normal" font-weight="normal" text-decoration="none" x="689.648681640625" y="145.5">«abstract»</text></g></g><g transform="translate(2,-46) scale(1,1)"><g><path fill="none" stroke="none"/><text fill="#000000" stroke="none" font-family="Arial" font-size="13px" font-style="italic" font-weight="bold" text-decoration="none" x="705.911376953125" y="160.5">Card</text></g></g><g transform="translate(2,-46) scale(1,1)"><g><path fill="none" stroke="none"/><text fill="#000000" stroke="none" font-family="Arial" font-size="13px" font-style="normal" font-weight="normal" text-decoration="none" x="557" y="183.5">-name: String</text></g></g><g transform="translate(2,-46) scale(1,1)"><g><path fill="none" stroke="none"/><text fill="#000000" stroke="none" font-family="Arial" font-size="13px" font-style="normal" font-weight="normal" text-decoration="none" x="557" y="198.5">-value: int</text></g></g><g transform="translate(2,-46) scale(1,1)"><g><path fill="none" stroke="none"/><text fill="#000000" stroke="none" font-family="Arial" font-size="13px" font-style="normal" font-weight="normal" text-decoration="none" x="557" y="213.5">-suit: CardSuit</text></g></g><g transform="translate(2,-46) scale(1,1)"><g><path fill="none" stroke="none"/><text fill="#000000" stroke="none" font-family="Arial" font-size="13px" font-style="italic" font-weight="normal" text-decoration="none" x="557" y="236.5">«abstract»+canPlayFromHand(p: Player): boolean</text></g></g><g transform="translate(2,-46) scale(1,1)"><g><path fill="none" stroke="none"/><text fill="#000000" stroke="none" font-family="Arial" font-size="13px" font-style="italic" font-weight="normal" text-decoration="none" x="557" y="251.5">«abstract»+playedBy(p: Player)</text></g></g><g transform="translate(2,-46) scale(1,1)"><g><path fill="none" stroke="none"/><text fill="#000000" stroke="none" font-family="Arial" font-size="13px" font-style="normal" font-weight="normal" text-decoration="none" x="557" y="266.5">+getName(): String</text></g></g><g transform="translate(2,-46) scale(1,1)"><g><path fill="none" stroke="none"/><text fill="#000000" stroke="none" font-family="Arial" font-size="13px" font-style="normal" font-weight="normal" text-decoration="none" x="557" y="281.5">+getValue(): int</text></g></g><g transform="translate(2,-46) scale(1,1)"><g><path fill="none" stroke="none"/><text fill="#000000" stroke="none" font-family="Arial" font-size="13px" font-style="normal" font-weight="normal" text-decoration="none" x="557" y="296.5">+getSuit(): CardSuit</text></g></g><g transform="translate(2,-46) scale(1,1)"><rect fill="#C0C0C0" stroke="none" x="351" y="463" width="352" height="190" opacity="0.2"/></g><g transform="translate(2,-46) scale(1,1)"><rect fill="#ffffff" stroke="none" x="344" y="456" width="352" height="190"/></g><g transform="translate(2,-46) scale(1,1)"><path fill="none" stroke="#000000" d="M 344 456 L 696 456 L 696 646 L 344 646 L 344 456 Z Z" stroke-miterlimit="10"/></g><g transform="translate(2,-46) scale(1,1)"><path fill="none" stroke="#000000" d="M 344 481 L 696 481" stroke-miterlimit="10"/></g><g transform="translate(2,-46) scale(1,1)"><path fill="none" stroke="#000000" d="M 344 504 L 696 504" stroke-miterlimit="10"/></g><g transform="translate(2,-46) scale(1,1)"><g><path fill="none" stroke="none"/><text fill="#000000" stroke="none" font-family="Arial" font-size="13px" font-style="normal" font-weight="bold" text-decoration="none" x="502.299560546875" y="475.5">Game</text></g></g><g transform="translate(2,-46) scale(1,1)"><g><path fill="none" stroke="none"/><text fill="#000000" stroke="none" font-family="Arial" font-size="13px" font-style="normal" font-weight="normal" text-decoration="none" x="349" y="498.5">-currentPlayer: Player</text></g></g><g transform="translate(2,-46) scale(1,1)"><g><path fill="none" stroke="none"/><text fill="#000000" stroke="none" font-family="Arial" font-size="13px" font-style="normal" font-weight="normal" text-decoration="none" x="349" y="521.5">+run()</text></g></g><g transform="translate(2,-46) scale(1,1)"><g><path fill="none" stroke="none"/><text fill="#000000" stroke="none" font-family="Arial" font-size="13px" font-style="normal" font-weight="normal" text-decoration="none" x="349" y="536.5">+getPlayerDistance(playe1: Player, playe2: Player): int</text></g></g><g transform="translate(2,-46) scale(1,1)"><g><path fill="none" stroke="none"/><text fill="#000000" stroke="none" font-family="Arial" font-size="13px" font-style="normal" font-weight="normal" text-decoration="none" x="349" y="551.5">+getPlayers(): ArrayList&lt;Player&gt;</text></g></g><g transform="translate(2,-46) scale(1,1)"><g><path fill="none" stroke="none"/><text fill="#000000" stroke="none" font-family="Arial" font-size="13px" font-style="normal" font-weight="normal" text-decoration="none" x="349" y="566.5">+removeFromDiscard(card: Card)</text></g></g><g transform="translate(2,-46) scale(1,1)"><g><path fill="none" stroke="none"/><text fill="#000000" stroke="none" font-family="Arial" font-size="13px" font-style="normal" font-weight="normal" text-decoration="none" x="349" y="581.5">+getTopOfDiscardPile(): Card</text></g></g><g transform="translate(2,-46) scale(1,1)"><g><path fill="none" stroke="none"/><text fill="#000000" stroke="none" font-family="Arial" font-size="13px" font-style="normal" font-weight="normal" text-decoration="none" x="349" y="596.5">+removePlayer(p: Player)</text></g></g><g transform="translate(2,-46) scale(1,1)"><g><path fill="none" stroke="none"/><text fill="#000000" stroke="none" font-family="Arial" font-size="13px" font-style="normal" font-weight="normal" text-decoration="none" x="349" y="611.5">+drawCard(): Card</text></g></g><g transform="translate(2,-46) scale(1,1)"><g><path fill="none" stroke="none"/><text fill="#000000" stroke="none" font-family="Arial" font-size="13px" font-style="normal" font-weight="normal" text-decoration="none" x="349" y="626.5">+addToDiscard(c: Card): void</text></g></g><g transform="translate(2,-46) scale(1,1)"><g><path fill="none" stroke="none"/><text fill="#000000" stroke="none" font-family="Arial" font-size="13px" font-style="normal" font-weight="normal" text-decoration="none" x="349" y="641.5">+updateGameFinished(): void</text></g></g><g transform="translate(2,-46) scale(1,1)"><rect fill="#C0C0C0" stroke="none" x="991" y="191" width="245.69970703125" height="85" opacity="0.2"/></g><g transform="translate(2,-46) scale(1,1)"><rect fill="#ffd456" stroke="none" x="984" y="184" width="245.69970703125" height="85"/></g><g transform="translate(2,-46) scale(1,1)"><path fill="none" stroke="#000000" d="M 984 184 L 1229.69970703125 184 L 1229.69970703125 269 L 984 269 L 984 184 Z Z" stroke-miterlimit="10"/></g><g transform="translate(2,-46) scale(1,1)"><path fill="none" stroke="#000000" d="M 984 222 L 1229.69970703125 222" stroke-miterlimit="10"/></g><g transform="translate(2,-46) scale(1,1)"><path fill="none" stroke="#000000" d="M 984 232 L 1229.69970703125 232" stroke-miterlimit="10"/></g><g transform="translate(2,-46) scale(1,1)"><g><path fill="none" stroke="none"/><text fill="#000000" stroke="none" font-family="Arial" font-size="13px" font-style="normal" font-weight="normal" text-decoration="none" x="1061.31494140625" y="201.5">«&lt;&lt;abstract&gt;&gt;»</text></g></g><g transform="translate(2,-46) scale(1,1)"><g><path fill="none" stroke="none"/><text fill="#000000" stroke="none" font-family="Arial" font-size="13px" font-style="italic" font-weight="bold" text-decoration="none" x="1079.751708984375" y="216.5">BlueCard</text></g></g><g transform="translate(2,-46) scale(1,1)"><g><path fill="none" stroke="none"/><text fill="#000000" stroke="none" font-family="Arial" font-size="13px" font-style="normal" font-weight="normal" text-decoration="none" x="989" y="249.5">+canPlayFromHand(p: Player): boolean</text></g></g><g transform="translate(2,-46) scale(1,1)"><g><path fill="none" stroke="none"/><text fill="#000000" stroke="none" font-family="Arial" font-size="13px" font-style="normal" font-weight="normal" text-decoration="none" x="989" y="264.5">+playedBy(p: Player)</text></g></g><g transform="translate(2,-46) scale(1,1)"><rect fill="#C0C0C0" stroke="none" x="991" y="71" width="237.69970703125" height="85" opacity="0.2"/></g><g transform="translate(2,-46) scale(1,1)"><rect fill="#ffd456" stroke="none" x="984" y="64" width="237.69970703125" height="85"/></g><g transform="translate(2,-46) scale(1,1)"><path fill="none" stroke="#000000" d="M 984 64 L 1221.69970703125 64 L 1221.69970703125 149 L 984 149 L 984 64 Z Z" stroke-miterlimit="10"/></g><g transform="translate(2,-46) scale(1,1)"><path fill="none" stroke="#000000" d="M 984 102 L 1221.69970703125 102" stroke-miterlimit="10"/></g><g transform="translate(2,-46) scale(1,1)"><path fill="none" stroke="#000000" d="M 984 112 L 1221.69970703125 112" stroke-miterlimit="10"/></g><g transform="translate(2,-46) scale(1,1)"><g><path fill="none" stroke="none"/><text fill="#000000" stroke="none" font-family="Arial" font-size="13px" font-style="normal" font-weight="normal" text-decoration="none" x="1057.31494140625" y="81.5">«&lt;&lt;abstract&gt;&gt;»</text></g></g><g transform="translate(2,-46) scale(1,1)"><g><path fill="none" stroke="none"/><text fill="#000000" stroke="none" font-family="Arial" font-size="13px" font-style="normal" font-weight="bold" text-decoration="none" x="1067.080810546875" y="96.5">OrangeCard</text></g></g><g transform="translate(2,-46) scale(1,1)"><g><path fill="none" stroke="none"/><text fill="#000000" stroke="none" font-family="Arial" font-size="13px" font-style="normal" font-weight="normal" text-decoration="none" x="989" y="129.5">+canPlayFromHand(p: Player): boolean</text></g></g><g transform="translate(2,-46) scale(1,1)"><g><path fill="none" stroke="none"/><text fill="#000000" stroke="none" font-family="Arial" font-size="13px" font-style="normal" font-weight="normal" text-decoration="none" x="989" y="144.5">+playedBy(p: Player)</text></g></g><g transform="translate(2,-46) scale(1,1)"><rect fill="#C0C0C0" stroke="none" x="991" y="359" width="217.6533203125" height="85" opacity="0.2"/></g><g transform="translate(2,-46) scale(1,1)"><rect fill="#ffd456" stroke="none" x="984" y="352" width="217.6533203125" height="85"/></g><g transform="translate(2,-46) scale(1,1)"><path fill="none" stroke="#000000" d="M 984 352 L 1201.6533203125 352 L 1201.6533203125 437 L 984 437 L 984 352 Z Z" stroke-miterlimit="10"/></g><g transform="translate(2,-46) scale(1,1)"><path fill="none" stroke="#000000" d="M 984 390 L 1201.6533203125 390" stroke-miterlimit="10"/></g><g transform="translate(2,-46) scale(1,1)"><path fill="none" stroke="#000000" d="M 984 400 L 1201.6533203125 400" stroke-miterlimit="10"/></g><g transform="translate(2,-46) scale(1,1)"><g><path fill="none" stroke="none"/><text fill="#000000" stroke="none" font-family="Arial" font-size="13px" font-style="normal" font-weight="normal" text-decoration="none" x="1047.291748046875" y="369.5">«&lt;&lt;abstract&gt;&gt;»</text></g></g><g transform="translate(2,-46) scale(1,1)"><g><path fill="none" stroke="none"/><text fill="#000000" stroke="none" font-family="Arial" font-size="13px" font-style="normal" font-weight="bold" text-decoration="none" x="1054.6455078125" y="384.5">WeaponCard</text></g></g><g transform="translate(2,-46) scale(1,1)"><g><path fill="none" stroke="none"/><text fill="#000000" stroke="none" font-family="Arial" font-size="13px" font-style="normal" font-weight="normal" text-decoration="none" x="989" y="417.5">«&lt;&lt;abstract&gt;&gt;»+getRange(): int</text></g></g><g transform="translate(2,-46) scale(1,1)"><g><path fill="none" stroke="none"/><text fill="#000000" stroke="none" font-family="Arial" font-size="13px" font-style="normal" font-weight="normal" text-decoration="none" x="989" y="432.5">+playedBy(p: Player)</text></g></g><g transform="translate(2,-46) scale(1,1)"><path fill="none" stroke="#000000" d="M 1008 149 L 1008 152 L 888 152" stroke-miterlimit="10"/></g><g transform="translate(2,-46) scale(1,1)"><path fill="#FFFFFF" stroke="none" d="M 908.3253497152483 143.58096448796803 L 888 152 L 908.3253497152483 160.41903551203197"/></g><g transform="translate(2,-46) scale(1,1)"><path fill="none" stroke="#000000" d="M 908.3253497152483 143.58096448796803 L 888 152 L 908.3253497152483 160.41903551203197 L 908.3253497152483 143.58096448796803" stroke-miterlimit="10"/></g><g transform="translate(2,-46) scale(1,1)"><path fill="none" stroke="#000000" d="M 984 222 L 888 222" stroke-miterlimit="10"/></g><g transform="translate(2,-46) scale(1,1)"><path fill="#FFFFFF" stroke="none" d="M 908.3253497152483 213.58096448796803 L 888 222 L 908.3253497152483 230.41903551203197"/></g><g transform="translate(2,-46) scale(1,1)"><path fill="none" stroke="#000000" d="M 908.3253497152483 213.58096448796803 L 888 222 L 908.3253497152483 230.41903551203197 L 908.3253497152483 213.58096448796803" stroke-miterlimit="10"/></g><g transform="translate(2,-46) scale(1,1)"><path fill="none" stroke="#000000" d="M 435 152 L 552 152" stroke-miterlimit="10"/></g><g transform="translate(2,-46) scale(1,1)"><path fill="none" stroke="#000000" d="M 541.8373251423759 156.209517756016 L 552 152 L 541.8373251423758 147.790482243984" stroke-miterlimit="10"/></g><g transform="translate(2,-46) scale(1,1)"><g><path fill="none" stroke="none"/><text fill="#000000" stroke="none" font-family="Arial" font-size="13px" font-style="normal" font-weight="normal" text-decoration="none" x="508.87548828125" y="143.5">-hand</text></g></g><g transform="translate(2,-46) scale(1,1)"><g><path fill="none" stroke="none"/><text fill="#000000" stroke="none" font-family="Arial" font-size="13px" font-style="normal" font-weight="normal" text-decoration="none" x="527.220458984375" y="170.5">*</text></g></g><g transform="translate(2,-46) scale(1,1)"><path fill="none" stroke="#000000" d="M 435 216 L 552 216" stroke-miterlimit="10"/></g><g transform="translate(2,-46) scale(1,1)"><path fill="none" stroke="#000000" d="M 541.8373251423759 220.209517756016 L 552 216 L 541.8373251423758 211.790482243984" stroke-miterlimit="10"/></g><g transform="translate(2,-46) scale(1,1)"><g><path fill="none" stroke="none"/><text fill="#000000" stroke="none" font-family="Arial" font-size="13px" font-style="normal" font-weight="normal" text-decoration="none" x="505.6318359375" y="207.5">-inPlay</text></g></g><g transform="translate(2,-46) scale(1,1)"><g><path fill="none" stroke="none"/><text fill="#000000" stroke="none" font-family="Arial" font-size="13px" font-style="normal" font-weight="normal" text-decoration="none" x="527.220458984375" y="234.5">*</text></g></g><g transform="translate(2,-46) scale(1,1)"><path fill="none" stroke="#000000" d="M 72 400 L 72 200 L 192 200" stroke-miterlimit="10"/></g><g transform="translate(2,-46) scale(1,1)"><g><path fill="none" stroke="none"/><text fill="#000000" stroke="none" font-family="Arial" font-size="13px" font-style="normal" font-weight="normal" text-decoration="none" x="77.5" y="386.5">-bangCharacter</text></g></g><g transform="translate(2,-46) scale(1,1)"><g><path fill="none" stroke="none"/><text fill="#000000" stroke="none" font-family="Arial" font-size="13px" font-style="normal" font-weight="normal" text-decoration="none" x="80.5" y="388.5">1</text></g></g><g transform="translate(2,-46) scale(1,1)"><g><path fill="none" stroke="none"/><text fill="#000000" stroke="none" font-family="Arial" font-size="13px" font-style="normal" font-weight="normal" text-decoration="none" x="166.5" y="218.5">1</text></g></g><g transform="translate(2,-46) scale(1,1)"><path fill="none" stroke="#000000" d="M 696 520 L 776 520 L 776 301" stroke-miterlimit="10"/></g><g transform="translate(2,-46) scale(1,1)"><path fill="none" stroke="#000000" d="M 780.209517756016 311.16267485762415 L 776 301 L 771.790482243984 311.16267485762415" stroke-miterlimit="10"/></g><g transform="translate(2,-46) scale(1,1)"><g><path fill="none" stroke="none"/><text fill="#000000" stroke="none" font-family="Arial" font-size="13px" font-style="normal" font-weight="normal" text-decoration="none" x="702.5" y="329.5">-drawPile</text></g></g><g transform="translate(2,-46) scale(1,1)"><g><path fill="none" stroke="none"/><text fill="#000000" stroke="none" font-family="Arial" font-size="13px" font-style="normal" font-weight="normal" text-decoration="none" x="783.220458984375" y="328.5">*</text></g></g><g transform="translate(2,-46) scale(1,1)"><path fill="none" stroke="#000000" d="M 344 496 L 240 496 L 240 276" stroke-miterlimit="10"/></g><g transform="translate(2,-46) scale(1,1)"><path fill="#000000" stroke="none" d="M 333.83732514237585 500.209517756016 L 344 496 L 333.83732514237585 491.790482243984 L 322 496"/></g><g transform="translate(2,-46) scale(1,1)"><path fill="none" stroke="#000000" d="M 333.83732514237585 500.209517756016 L 344 496 L 333.83732514237585 491.790482243984 L 322 496 L 333.83732514237585 500.209517756016" stroke-miterlimit="10"/></g><g transform="translate(2,-46) scale(1,1)"><g><path fill="none" stroke="none"/><text fill="#000000" stroke="none" font-family="Arial" font-size="13px" font-style="normal" font-weight="normal" text-decoration="none" x="299.13134765625" y="516.5">-game</text></g></g><g transform="translate(2,-46) scale(1,1)"><g><path fill="none" stroke="none"/><text fill="#000000" stroke="none" font-family="Arial" font-size="13px" font-style="normal" font-weight="normal" text-decoration="none" x="249.13134765625" y="299.5">-players</text></g></g><g transform="translate(2,-46) scale(1,1)"><g><path fill="none" stroke="none"/><text fill="#000000" stroke="none" font-family="Arial" font-size="13px" font-style="normal" font-weight="normal" text-decoration="none" x="207.5" y="300.5">4..7</text></g></g><g transform="translate(2,-46) scale(1,1)"><path fill="none" stroke="#000000" d="M 1120 352 L 1120 269" stroke-miterlimit="10"/></g><g transform="translate(2,-46) scale(1,1)"><path fill="#FFFFFF" stroke="none" d="M 1128.419035512032 289.3253497152483 L 1120 269 L 1111.580964487968 289.3253497152483"/></g><g transform="translate(2,-46) scale(1,1)"><path fill="none" stroke="#000000" d="M 1128.419035512032 289.3253497152483 L 1120 269 L 1111.580964487968 289.3253497152483 L 1128.419035512032 289.3253497152483" stroke-miterlimit="10"/></g><g transform="translate(2,-46) scale(1,1)"><path fill="none" stroke="#000000" d="M 696 576 L 848 576 L 848 301" stroke-miterlimit="10"/></g><g transform="translate(2,-46) scale(1,1)"><path fill="none" stroke="#000000" d="M 852.209517756016 311.16267485762415 L 848 301 L 843.790482243984 311.16267485762415" stroke-miterlimit="10"/></g><g transform="translate(2,-46) scale(1,1)"><g><path fill="none" stroke="none"/><text fill="#000000" stroke="none" font-family="Arial" font-size="13px" font-style="normal" font-weight="normal" text-decoration="none" x="857.13134765625" y="330.5">-discardPile</text></g></g><g transform="translate(2,-46) scale(1,1)"><g><path fill="none" stroke="none"/><text fill="#000000" stroke="none" font-family="Arial" font-size="13px" font-style="normal" font-weight="normal" text-decoration="none" x="831.220458984375" y="328.5">*</text></g></g></g></svg>